<svg viewBox="0 0 64 12" preserveAspectRatio="none" xmlns="http://www.w3.org/2000/svg">
    <path fill="#ffffff" d="M1 1 1 11 7 11 7 9 3 9 3 7 5 7 5 5 3 5 3 3 7 3 7 1
                            M8 1 8 11 13 11 13 9 10 9 10 1
                            M14 1 14 11 16 11 16 1
                            M17 3 17 11 19 11 19 8 21 8 21 11 23 11 23 3 21 1 19 1
                            M20 3 21 4 21 6 19 6 19 4
                            M24 2 24 6 25 7 28 7 28 9 24 9 24 11 29 11 30 10 30 6 29 5 26 5 26 3 30 3 30 1 25 1
                            M32 1 32 11 34 11 34 7 35 7 36 8 36 11 38 11 38 7 37 6 38 5 38 1 36 1 36 4 35 5 34 5 34 1
                            M39 3 39 11 41 11 41 8 43 8 43 11 45 11 45 3 43 1 41 1
                            M41 4 42 3 43 4 43 6 41 6
                            M46 1 46 11 48 11 48 4 50 6 52 4 52 11 54 11 54 1 52 1 50 3 48 1
                            M55 1 55 11 57 11 57 4 59 6 61 4 61 11 63 11 63 1 61 1 59 3 57 1"
    />
</svg>